<svg version="1.1" id="Layer_1" xmlns="http://www.w3.org/2000/svg" xmlns:xlink="http://www.w3.org/1999/xlink" x="0px" y="0px"
	 width="100%" viewBox="0 0 1200 620" enable-background="new 0 0 1200 620" xml:space="preserve">
<path fill="#1290CB" opacity="1.000000" stroke="none" 
	d="
M4.000000,1.000000 
	C401.032715,1.000000 798.065430,1.000000 1195.568481,1.262038 
	C1196.102539,1.687191 1196.166382,1.850306 1196.179810,2.478540 
	C1196.215210,140.147995 1196.302612,277.352325 1196.375366,414.556671 
	C1196.376709,417.048676 1196.204712,419.540710 1195.637817,422.026520 
	C879.761353,421.982330 564.360657,421.946045 248.959930,421.905182 
	C169.984772,421.894928 91.009598,421.869934 11.803234,421.602356 
	C9.122396,420.201935 6.672757,419.050903 4.189538,417.859650 
	C4.155959,417.819427 4.060122,417.776978 4.063316,417.566650 
	C4.066512,417.356354 4.094604,416.933624 4.097380,416.469147 
	C4.129034,415.006378 4.182972,414.008118 4.183241,413.009827 
	C4.219863,276.995605 4.253388,140.981400 4.273618,4.967196 
	C4.273814,3.644811 4.095158,2.322399 4.000000,1.000000 
M404.856812,408.506989 
	C405.259369,406.637329 406.013550,404.767822 406.014343,402.897980 
	C406.069733,275.735718 406.035034,148.573410 406.171997,21.411282 
	C406.177521,16.290531 404.675232,14.981833 399.669708,14.986975 
	C274.340820,15.115764 149.011780,15.087689 23.682779,15.089375 
	C17.045933,15.089464 17.036333,15.097861 17.036232,21.714880 
	C17.034302,148.543839 17.034410,275.372803 17.035887,402.201752 
	C17.035965,408.956879 17.043282,408.961731 24.018372,408.961761 
	C149.014053,408.962799 274.009735,408.962982 399.005432,408.958221 
	C400.670532,408.958130 402.335632,408.891815 404.856812,408.506989 
M589.550598,169.837677 
	C571.111572,170.739304 553.876099,174.956589 539.765747,188.509399 
	C539.171448,186.142578 539.174927,184.378372 539.170837,182.614212 
	C539.129089,164.451706 539.086365,146.289185 539.043518,128.126678 
	C539.026245,120.795044 539.108337,113.461426 538.962830,106.132324 
	C538.813110,98.589859 532.313232,91.184410 526.103088,91.222000 
	C519.400085,91.262573 512.531738,98.291290 511.990784,105.723061 
	C511.857971,107.548187 511.863342,109.385880 511.863159,111.217796 
	C511.857147,177.869385 511.857849,244.520981 511.859406,311.172577 
	C511.859436,312.505432 511.860809,313.838867 511.896759,315.171082 
	C512.045288,320.673981 514.919189,324.396515 520.001221,325.907837 
	C523.105408,326.830994 526.553894,326.991241 529.825012,326.871704 
	C535.724915,326.656006 538.836243,323.188232 538.976501,317.270081 
	C539.036011,314.759918 538.986450,312.247223 538.986450,308.560028 
	C541.907227,310.556213 543.534302,311.660370 545.153442,312.776062 
	C563.874084,325.676147 584.267822,330.268890 606.779663,325.990906 
	C650.212708,317.737122 678.668762,274.025085 669.298950,230.869232 
	C662.916321,201.472290 631.456299,167.729004 589.550598,169.837677 
M843.730286,227.203934 
	C842.195862,225.940323 840.559326,224.781281 839.142761,223.397079 
	C823.296875,207.912796 807.538086,192.338837 791.609863,176.939987 
	C789.038330,174.453903 786.015808,171.999146 782.737000,170.783066 
	C777.962891,169.012482 772.417480,168.893951 768.729248,172.905029 
	C765.000793,176.959824 763.676758,182.436844 766.010864,187.813187 
	C767.298096,190.778076 769.290161,193.635162 771.572754,195.937866 
	C787.757202,212.264420 804.021057,228.514801 820.459534,244.584869 
	C823.585388,247.640732 823.734558,249.352554 820.510864,252.491501 
	C804.040588,268.528687 787.814758,284.817017 771.514099,301.028107 
	C770.334290,302.201385 769.147339,303.387207 768.119690,304.690216 
	C764.193420,309.668182 764.127686,315.107666 766.566467,320.679810 
	C768.894287,325.998322 773.824951,326.528961 778.722961,326.812897 
	C783.555603,327.092987 787.248169,324.835358 790.589417,321.471008 
	C806.907227,305.040619 823.320862,288.705353 839.708984,272.344940 
	C840.968811,271.087280 842.294556,269.895660 843.839355,268.437683 
	C845.486694,270.000153 846.818970,271.201630 848.082397,272.471558 
	C864.180176,288.651062 880.316956,304.792175 896.332947,321.052307 
	C902.251038,327.060608 908.973145,328.742981 916.795593,325.693604 
	C921.735840,323.767761 923.172241,320.864960 922.463135,315.433990 
	C921.584167,308.701996 918.414734,303.252075 913.687073,298.496002 
	C898.536560,283.254181 883.547546,267.850525 868.280640,252.726898 
	C864.831177,249.309860 864.955994,247.221863 868.368225,243.879089 
	C884.552307,228.024582 900.539551,211.967865 916.483765,195.871124 
	C918.662781,193.671204 920.737183,191.070221 921.945129,188.261459 
	C925.579590,179.810715 920.827026,171.624435 911.813416,170.004700 
	C906.175049,168.991455 901.818115,171.077393 897.913757,174.989059 
	C881.673157,191.260101 865.367249,207.465988 849.048950,223.659164 
	C847.660889,225.036591 846.004517,226.143646 843.730286,227.203934 
M957.960205,198.570999 
	C950.392029,219.472107 957.019043,241.089417 974.577820,254.128113 
	C984.406128,261.426331 995.650513,262.708466 1007.232361,262.910248 
	C1017.227539,263.084381 1027.232422,262.763336 1037.225098,262.999817 
	C1048.880127,263.275665 1056.465454,273.013611 1054.236694,284.420166 
	C1052.323730,294.210266 1044.883789,299.829895 1033.373291,299.867798 
	C1011.545593,299.939636 989.715698,299.718872 967.890320,299.955017 
	C958.950989,300.051758 954.654297,306.224457 955.059937,317.108459 
	C955.313538,323.912872 959.147766,326.901276 967.889648,326.903778 
	C992.051697,326.910614 1016.214844,326.980255 1040.374634,326.734131 
	C1044.777466,326.689270 1049.409790,325.918365 1053.519409,324.373840 
	C1071.828857,317.492859 1084.755249,296.315216 1082.817505,277.084412 
	C1080.627075,255.345169 1066.229614,239.049103 1044.826904,236.191818 
	C1031.531128,234.416779 1017.940735,234.862518 1004.485046,234.255630 
	C1001.674744,234.128891 998.752991,234.183746 996.093628,233.420029 
	C987.130615,230.845993 981.775513,222.032745 983.011414,212.456085 
	C984.148254,203.647751 990.944153,198.190826 1001.128296,198.127289 
	C1017.624634,198.024353 1034.122559,198.121140 1050.618042,197.953629 
	C1058.787109,197.870667 1062.925415,193.132355 1063.017944,184.344223 
	C1063.126709,174.015976 1060.361572,170.375626 1051.427002,170.094345 
	C1035.790649,169.602112 1020.135925,168.924423 1004.505188,169.211456 
	C983.649475,169.594421 967.054504,177.670685 957.960205,198.570999 
M730.997681,271.500000 
	C730.997437,241.848236 731.013123,212.196442 730.986938,182.544708 
	C730.979492,174.124710 726.887756,170.160126 718.316406,170.087601 
	C708.089294,170.001083 703.896179,173.406815 703.885925,182.231873 
	C703.834473,226.376312 703.836060,270.520874 703.884521,314.665314 
	C703.894104,323.389801 708.063049,326.947540 717.754395,326.911469 
	C726.771912,326.877899 730.962524,322.987885 730.986450,314.478912 
	C731.025818,300.486053 730.997498,286.492981 730.997681,271.500000 
M723.037903,108.098717 
	C715.796936,106.061546 709.691528,107.982292 705.825623,113.513641 
	C701.861023,119.186378 701.793396,126.917336 705.661743,132.249771 
	C709.414062,137.422287 715.488892,139.581635 721.528564,137.889709 
	C727.374817,136.251938 732.137939,130.609558 732.611816,123.848701 
	C733.098206,116.909645 730.032166,111.640450 723.037903,108.098717 
z"/>
<path fill="#FEFFFF" opacity="1.000000" stroke="none" 
	d="
M1201.000000,444.000000 
	C1201.000000,502.983856 1201.000000,561.967712 1201.000000,620.945068 
	C801.000000,620.938599 401.000000,620.938599 1.000000,620.938599 
	C1.000000,562.559937 1.000000,504.242615 1.468569,445.452271 
	C126.366547,444.665833 250.795822,444.184753 375.225403,444.078796 
	C556.842407,443.924164 738.459717,444.043243 920.076843,444.037262 
	C1013.717896,444.034180 1107.359009,444.013000 1201.000000,444.000000 
M376.114960,503.358765 
	C385.185211,498.798523 394.247711,499.068146 402.472595,504.830902 
	C408.286957,508.904694 414.302277,509.756775 420.916016,508.859802 
	C424.523895,508.370483 425.685974,506.574860 424.232727,502.919525 
	C420.962067,494.692749 414.805267,489.682770 406.657043,487.162689 
	C393.984406,483.243317 381.334503,484.089478 368.978668,488.664032 
	C359.176392,492.293213 353.466736,500.053070 353.421417,509.167023 
	C353.375092,518.483215 359.073822,526.552612 369.179962,529.997253 
	C380.009460,533.688477 391.052795,536.771240 402.068970,539.885559 
	C405.768799,540.931519 409.442963,541.864197 409.883545,546.307312 
	C410.352997,551.041748 407.136780,553.674255 403.197113,555.139404 
	C393.851624,558.614868 384.592926,558.122437 375.711517,553.524719 
	C374.005920,552.641785 371.938049,551.228821 371.377197,549.599243 
	C369.815186,545.060974 366.636719,544.667847 362.691528,544.954651 
	C359.875031,545.159363 357.028137,545.085571 354.201294,544.973206 
	C350.575653,544.829163 349.251038,546.221802 350.481659,549.808044 
	C353.800293,559.479004 359.766724,566.631592 369.669464,569.996765 
	C379.969116,573.496826 390.617035,574.174622 401.182495,572.191711 
	C407.100952,571.080933 413.270020,569.185425 418.334259,566.044312 
	C433.075287,556.901184 432.873016,537.160706 418.166718,528.069031 
	C413.411713,525.129395 408.093445,522.943909 402.801331,521.065613 
	C394.205017,518.014771 385.316223,515.781006 376.747192,512.662842 
	C371.043488,510.587341 370.911926,508.028442 376.114960,503.358765 
M85.737846,492.745575 
	C80.509315,490.425293 75.403702,486.503693 70.028717,486.091064 
	C55.130459,484.947449 40.114670,485.421997 25.156992,484.913788 
	C20.482925,484.754974 19.200815,486.292816 19.230108,490.856720 
	C19.388266,515.497559 19.249119,540.140381 19.213455,564.782471 
	C19.201532,573.020935 19.202831,573.021423 27.175819,573.006104 
	C29.673292,573.001282 32.176888,572.880127 34.666706,573.014893 
	C37.918114,573.190918 39.108173,571.773315 39.015213,568.566956 
	C38.817417,561.744690 38.865070,554.915588 38.786522,548.089600 
	C38.703300,540.857117 38.689774,540.909363 46.146049,540.989441 
	C52.134449,541.053772 58.153267,541.341370 64.107620,540.876709 
	C76.024277,539.946655 86.207764,535.820190 91.144073,523.766846 
	C95.698586,512.645813 94.710960,502.325745 85.737846,492.745575 
M973.319519,566.194702 
	C986.171143,577.856506 999.436035,572.840759 1013.002014,566.552795 
	C1012.600464,571.348694 1015.378967,572.494873 1018.787781,572.847229 
	C1020.770569,573.052063 1022.790283,572.913513 1024.768555,573.143738 
	C1029.382690,573.681030 1031.170288,572.107544 1031.154297,567.100342 
	C1031.072510,541.628723 1031.366455,516.155945 1031.507935,490.683411 
	C1031.517822,488.900818 1031.358765,487.117310 1031.259644,484.923553 
	C1024.715454,484.923553 1018.632080,484.923553 1012.102783,484.923553 
	C1012.102783,495.070007 1012.102783,505.052032 1012.102783,515.851013 
	C1008.997559,514.289429 1006.662415,513.143921 1004.352844,511.949066 
	C988.591309,503.794769 968.869934,512.043396 964.391357,529.200562 
	C960.894165,542.597900 962.202515,555.341675 973.319519,566.194702 
M735.598938,541.951843 
	C738.066162,548.301086 740.430237,554.692749 743.021301,560.991028 
	C749.114929,575.803528 744.734924,572.482544 760.867737,573.079163 
	C765.475586,573.249634 767.705200,571.391357 769.407166,567.267944 
	C780.057190,541.465576 790.933167,515.756531 801.707764,490.005463 
	C802.256348,488.694458 802.560303,487.281158 803.291870,484.889862 
	C798.153687,484.889862 793.705872,485.154938 789.305115,484.813843 
	C785.071411,484.485718 783.103394,486.241455 781.630920,490.102020 
	C775.000916,507.485565 768.099121,524.765625 761.241821,542.061829 
	C760.636169,543.589417 759.644226,544.963806 758.192871,547.545898 
	C757.028564,544.814270 756.351318,543.381714 755.797791,541.902710 
	C749.276306,524.477661 742.816162,507.029266 736.197632,489.641174 
	C735.550781,487.941864 734.046448,485.393066 732.789246,485.301086 
	C726.620911,484.849792 720.401611,485.096252 713.454529,485.096252 
	C720.968262,504.461121 728.107178,522.859924 735.598938,541.951843 
M1073.613037,536.125916 
	C1067.539917,537.780334 1061.253418,538.902954 1055.450928,541.231689 
	C1049.050293,543.800476 1045.877441,549.212036 1045.918457,556.270630 
	C1045.958008,563.057373 1049.447754,567.407104 1055.458618,570.148254 
	C1066.494629,575.181030 1076.787231,573.824219 1086.518677,566.839355 
	C1088.058472,565.734070 1089.655029,564.708130 1091.715454,563.313965 
	C1092.254761,566.265869 1092.437012,568.447327 1093.112427,570.463562 
	C1093.450684,571.473816 1094.658325,572.879272 1095.522339,572.915222 
	C1100.932007,573.139832 1106.355713,573.028687 1111.233398,573.028687 
	C1110.006470,565.400879 1108.381226,558.472717 1107.900146,551.466064 
	C1107.353760,543.510803 1107.991455,535.481628 1107.813599,527.491272 
	C1107.666260,520.864380 1106.021118,514.814453 1098.869141,512.247192 
	C1089.786377,508.986816 1080.365723,507.862122 1070.842896,509.202545 
	C1062.642212,510.356873 1055.604004,513.906860 1051.276367,521.487122 
	C1047.575195,527.970032 1048.081665,529.163757 1055.156006,530.690857 
	C1056.942139,531.076355 1058.769409,531.861633 1060.511353,531.708191 
	C1062.603516,531.523926 1065.273193,531.146545 1066.564209,529.783813 
	C1072.095825,523.944397 1078.540649,523.834839 1085.392334,526.170227 
	C1086.802979,526.651062 1088.747803,528.740417 1088.602051,529.844849 
	C1088.398804,531.383606 1086.709229,533.452087 1085.210938,533.947021 
	C1081.774170,535.082275 1078.068115,535.402222 1073.613037,536.125916 
M562.203064,569.869751 
	C565.217224,567.655273 568.231445,565.440796 571.700745,562.892029 
	C572.207886,565.544861 572.407288,567.705811 573.083069,569.705811 
	C573.491821,570.915161 574.592468,572.756531 575.462646,572.802795 
	C580.844238,573.089417 586.248657,572.946838 591.604797,572.946838 
	C590.565308,568.059448 589.151001,563.921692 588.897278,559.713989 
	C588.296448,549.750427 588.458679,539.741699 587.900085,529.774414 
	C587.523376,523.052673 586.524658,516.001953 579.475098,512.823425 
	C568.206665,507.742767 556.466675,506.488495 544.549011,510.792297 
	C538.006775,513.154907 532.901367,517.315186 530.092102,523.736023 
	C529.456665,525.188232 529.706116,527.827026 530.666077,529.020752 
	C533.078674,532.020935 544.393372,532.156494 547.131653,529.478577 
	C551.766113,524.946228 557.394531,523.936584 563.296265,525.442322 
	C565.385071,525.975220 568.109131,528.262634 568.519043,530.181396 
	C569.211243,533.422302 566.009216,534.355896 563.258911,534.794739 
	C560.304077,535.266113 557.253296,535.342896 554.386475,536.117859 
	C547.526306,537.972229 540.484985,539.529236 534.016846,542.351990 
	C528.074219,544.945496 525.323669,550.417419 526.011292,557.132385 
	C526.639465,563.266846 529.746582,567.633423 535.484131,570.116638 
	C544.168091,573.875061 552.824768,574.349304 562.203064,569.869751 
M123.107445,572.831360 
	C133.986801,574.656372 142.709930,569.322937 151.972961,563.538391 
	C152.384354,565.879822 152.453232,567.680237 153.057602,569.278137 
	C153.565765,570.621704 154.632401,572.716553 155.563644,572.777771 
	C160.749435,573.118835 165.969330,572.941589 172.126144,572.941589 
	C166.004105,560.552551 168.363785,548.472107 168.167892,536.604736 
	C168.121185,533.775024 168.127289,530.938782 167.930054,528.118042 
	C167.224426,518.026550 163.151367,512.935425 153.367661,510.537720 
	C149.035095,509.475952 144.525024,508.636932 140.088272,508.601379 
	C129.302231,508.514954 119.082314,510.500580 112.203911,520.016296 
	C106.843575,527.432007 107.929550,529.927551 116.867142,530.813843 
	C120.310944,531.155396 123.950653,532.933655 127.206482,529.563293 
	C132.143280,524.452942 139.651535,523.108459 145.730743,526.239624 
	C147.047867,526.918030 148.448349,529.021240 148.365189,530.379700 
	C148.284134,531.703857 146.544205,533.220154 145.174149,534.082581 
	C143.991669,534.826965 142.296387,534.732971 140.843246,535.075134 
	C132.621078,537.011353 124.270592,538.541382 116.226921,541.052551 
	C109.899162,543.028076 106.018501,547.698730 105.971405,554.843689 
	C105.923553,562.103760 109.105659,567.267517 115.747787,570.203064 
	C117.866608,571.139526 120.093742,571.830872 123.107445,572.831360 
M259.785400,525.767883 
	C263.387634,525.556702 267.031250,524.921997 270.578979,525.268616 
	C273.409454,525.545166 277.005005,526.351135 276.677673,530.427979 
	C276.374268,534.206848 273.204285,534.532104 270.094452,535.152771 
	C261.497620,536.868347 252.779236,538.356384 244.479706,541.068909 
	C236.721832,543.604431 233.701370,548.973206 233.969360,556.198975 
	C234.220718,562.976196 238.350266,568.280884 245.447327,570.969543 
	C256.181549,575.036072 265.972748,573.056885 275.086609,566.441589 
	C276.569275,565.365417 278.230957,564.535889 280.615112,563.111084 
	C280.785217,565.976685 280.575378,567.847168 281.095306,569.486145 
	C281.508789,570.789490 282.752716,572.735291 283.733917,572.800537 
	C288.781586,573.135864 293.863464,572.955933 299.563354,572.955933 
	C298.530731,569.260376 297.197601,566.465332 297.048553,563.608521 
	C296.452179,552.176697 296.082611,540.728027 295.899628,529.281189 
	C295.728455,518.576233 291.372070,511.794983 280.786163,510.292694 
	C272.062561,509.054688 262.892853,509.292786 254.134262,510.467712 
	C246.373154,511.508850 240.942474,517.092773 237.655258,524.374512 
	C236.266266,527.451355 236.716309,529.302002 240.454620,530.071594 
	C246.928360,531.404358 253.481018,533.885193 258.168213,526.523865 
	C258.323181,526.280518 258.737701,526.202393 259.785400,525.767883 
M859.373047,544.968628 
	C860.871704,544.968018 862.376465,544.880432 863.867676,544.985535 
	C866.656372,545.182129 867.733826,543.972412 867.699585,541.181580 
	C867.479126,523.196289 857.932800,511.704285 840.324646,509.514984 
	C827.900757,507.970215 816.095276,510.217072 807.978699,520.847961 
	C799.612183,531.806396 799.872742,544.246216 804.793091,556.395203 
	C809.270142,567.449280 819.097717,571.778503 830.223206,572.897522 
	C843.189575,574.201782 855.156860,571.756165 863.929382,560.938538 
	C866.035950,558.340881 865.452087,556.266541 861.947998,555.600647 
	C855.349670,554.346619 849.119568,552.727966 842.106018,555.715820 
	C831.451111,560.254944 822.917114,556.033508 819.963623,544.969299 
	C833.019958,544.969299 845.713440,544.969299 859.373047,544.968628 
M500.526459,508.887299 
	C490.104553,509.061401 491.338684,507.295929 491.289215,518.185669 
	C491.247589,527.344788 491.604034,536.532776 490.982361,545.653381 
	C490.505676,552.646606 483.102325,557.452515 475.136597,556.969788 
	C467.981415,556.536133 465.075073,552.931030 465.041260,544.343262 
	C465.005188,535.177307 465.016113,526.011169 465.007721,516.845154 
	C465.005371,514.265808 465.007355,511.686493 465.007355,509.248535 
	C458.249451,509.248535 452.329559,509.248535 447.029175,509.248535 
	C447.029175,525.567139 446.848846,541.522522 447.137146,557.469543 
	C447.225647,562.364624 450.217773,566.151001 454.515106,568.694580 
	C465.435974,575.158630 476.342773,574.736023 487.184662,568.547424 
	C489.916870,566.987793 492.211761,565.451172 493.235565,570.320068 
	C493.477234,571.469482 495.702606,572.723389 497.177643,572.973999 
	C499.600098,573.385437 502.175720,572.794556 504.649963,573.023621 
	C509.240875,573.448608 510.841156,571.555420 510.772644,566.990479 
	C510.512543,549.661133 510.535309,532.327637 510.410950,514.995972 
	C510.397186,513.077454 510.118347,511.160706 509.933502,508.887268 
	C506.779663,508.887268 504.136414,508.887268 500.526459,508.887299 
M901.600891,545.522217 
	C901.600464,542.859253 901.427490,540.182922 901.631653,537.535706 
	C902.265259,529.321777 908.630310,524.560425 918.289368,524.927002 
	C925.018005,525.182373 927.952454,529.039551 927.986267,537.840515 
	C928.025879,548.164734 928.057678,558.489929 927.957214,568.813354 
	C927.929382,571.669861 928.666809,573.197510 931.867615,573.045532 
	C935.689087,572.864014 939.561401,573.296997 943.336487,572.841309 
	C944.672302,572.680054 946.826599,570.703369 946.843872,569.529541 
	C947.042542,556.046875 947.348572,542.538391 946.722412,529.078857 
	C946.118652,516.100769 938.350037,508.805481 925.279175,509.225647 
	C918.863586,509.431915 912.507568,511.984711 906.164246,513.628418 
	C904.370483,514.093262 902.716431,515.097534 899.951050,516.315796 
	C901.439331,508.294739 896.887451,508.625946 892.234985,508.972717 
	C890.413330,509.108490 888.563782,509.113922 886.743591,508.969299 
	C883.925354,508.745361 882.970398,509.918488 882.966919,512.721130 
	C882.943481,531.537964 882.837952,550.355103 882.640930,569.170837 
	C882.608459,572.272217 883.833252,573.305115 886.791077,573.145264 
	C890.278931,572.956787 893.793335,572.844666 897.274170,573.058777 
	C900.751465,573.272644 902.038574,572.005920 901.914551,568.493530 
	C901.656067,561.173279 901.701477,553.842285 901.600891,545.522217 
M620.666077,509.996979 
	C618.309204,510.791534 615.889282,511.437866 613.607422,512.408752 
	C607.030151,515.207092 603.338562,520.195557 603.073120,527.395569 
	C602.814636,534.406128 606.550354,539.162537 612.636658,541.830139 
	C617.470520,543.948853 622.605835,545.443298 627.700256,546.886841 
	C633.121643,548.422913 638.689575,549.442017 644.110229,550.980286 
	C645.528870,551.382874 647.454407,552.735535 647.654175,553.906555 
	C647.843750,555.017578 646.328308,556.791138 645.129578,557.705627 
	C638.595947,562.689758 630.379517,563.247681 623.835510,558.251282 
	C618.123230,553.889954 612.525574,553.075684 606.207031,555.953857 
	C604.469177,556.745483 602.905090,557.918579 601.261292,558.916687 
	C602.397339,560.626526 603.208496,562.727722 604.721375,563.983826 
	C615.814514,573.194214 628.911804,574.607727 642.436523,572.382751 
	C648.006165,571.466492 653.906128,569.524475 658.510803,566.374878 
	C669.895996,558.587341 668.555603,545.841675 656.027466,540.132812 
	C650.319885,537.531921 644.142883,535.947815 638.150208,533.990051 
	C632.944946,532.289490 627.669678,530.799805 622.484009,529.043762 
	C619.874817,528.160156 618.349854,526.557922 620.854614,523.920776 
	C625.194946,519.350830 640.053284,519.418945 643.406982,524.558167 
	C645.892273,528.366577 648.485657,528.607239 652.171997,527.446716 
	C654.381104,526.751343 656.705750,526.431030 658.962463,525.877136 
	C663.953125,524.652100 664.409790,523.034424 660.880310,519.240417 
	C649.837952,507.370361 635.846802,507.871033 620.666077,509.996979 
M1167.036011,556.510010 
	C1158.264404,562.905762 1148.530762,563.372375 1141.966675,557.094666 
	C1138.724365,553.993774 1135.616577,553.376709 1131.599854,554.659546 
	C1129.398071,555.362610 1127.045166,555.578064 1124.782471,556.107056 
	C1120.158936,557.187866 1119.587646,558.662476 1122.869507,561.964600 
	C1124.953369,564.061279 1127.369751,565.965332 1129.942505,567.413025 
	C1138.589966,572.279297 1148.018188,573.767090 1157.841309,573.285889 
	C1165.638306,572.903870 1172.996460,571.196594 1179.296265,566.303467 
	C1184.249756,562.455872 1186.995728,557.455933 1185.862671,551.092651 
	C1184.734009,544.753662 1180.512817,540.939331 1174.511230,539.054565 
	C1167.860107,536.965942 1161.182495,534.961243 1154.503540,532.962952 
	C1151.004272,531.915955 1147.293213,531.349670 1144.037476,529.807007 
	C1142.301025,528.984192 1141.329712,526.546448 1140.012939,524.837585 
	C1141.522461,523.853699 1142.938965,522.249451 1144.559570,522.006348 
	C1148.810181,521.368713 1153.181030,520.905396 1157.440796,521.222168 
	C1159.547607,521.378784 1162.302368,522.928101 1163.380005,524.692566 
	C1165.561157,528.263916 1168.097534,528.904602 1171.730957,527.755249 
	C1174.100586,527.005676 1176.549194,526.508789 1178.952515,525.862122 
	C1183.612183,524.608337 1184.350098,522.930847 1180.796265,519.522278 
	C1177.633057,516.488525 1173.874146,513.704712 1169.872681,511.989746 
	C1159.924927,507.726318 1149.487305,507.798004 1139.040649,510.218872 
	C1137.757080,510.516327 1136.524292,511.068939 1135.300049,511.580322 
	C1127.182373,514.971252 1122.752686,520.991638 1123.122437,528.089294 
	C1123.518921,535.697205 1127.837280,541.200928 1136.354736,543.665771 
	C1144.958252,546.155579 1153.766602,547.930115 1162.448120,550.162415 
	C1165.251953,550.883301 1168.757080,551.354614 1167.036011,556.510010 
M191.781189,508.961212 
	C187.385864,508.558777 186.013016,510.708221 186.050369,514.913940 
	C186.181793,529.719238 186.056610,544.526733 186.032562,559.333435 
	C186.010162,573.128174 186.014160,572.955811 199.793243,573.107117 
	C204.148392,573.154907 204.883728,571.657776 204.889679,567.626770 
	C204.907303,555.685547 205.267227,543.733154 205.925186,531.808960 
	C206.311966,524.799622 210.178177,521.489075 217.195084,521.055176 
	C219.350983,520.921875 221.557236,521.147034 223.663986,520.775024 
	C227.324265,520.128662 230.399551,516.118347 229.877579,512.827576 
	C229.265503,508.968811 225.955093,508.756195 223.302094,509.125610 
	C216.911255,510.015686 210.603668,511.503601 203.742599,512.852600 
	C201.409103,508.892578 201.409103,508.892578 191.781189,508.961212 
z"/>
<path fill="#CCEFEC" opacity="1.000000" stroke="none" 
	d="
M1201.000000,443.533142 
	C1107.359009,444.013000 1013.717896,444.034180 920.076843,444.037262 
	C738.459717,444.043243 556.842407,443.924164 375.225403,444.078796 
	C250.795822,444.184753 126.366547,444.665833 1.468569,444.989624 
	C1.000000,435.979095 1.000000,426.958221 1.322097,417.440674 
	C1.832088,417.049683 2.019981,417.155273 2.357557,417.477631 
	C3.024867,417.721893 3.542495,417.749451 4.060122,417.776978 
	C4.060122,417.776978 4.155959,417.819427 4.118265,418.270477 
	C4.782746,423.451385 6.579104,424.158325 12.034433,421.851715 
	C91.009598,421.869934 169.984772,421.894928 248.959930,421.905182 
	C564.360657,421.946045 879.761353,421.982330 1195.932373,422.167114 
	C1198.135010,424.209320 1199.567505,426.104675 1201.000000,428.000000 
	C1201.000000,433.022095 1201.000000,438.044189 1201.000000,443.533142 
z"/>
<path fill="#FFFFFF" opacity="1.000000" stroke="none" 
	d="
M1201.000000,427.531372 
	C1199.567505,426.104675 1198.135010,424.209320 1196.407959,422.173340 
	C1196.204712,419.540710 1196.376709,417.048676 1196.375366,414.556671 
	C1196.302612,277.352325 1196.215210,140.147995 1196.361084,2.355773 
	C1196.795288,1.547250 1196.930908,1.291288 1197.000000,1.000000 
	C1198.332031,1.000000 1199.663940,1.000000 1200.998047,1.000000 
	C1201.000000,143.020889 1201.000000,285.041779 1201.000000,427.531372 
z"/>
<path fill="#011520" opacity="1.000000" stroke="none" 
	d="
M2.207873,417.260864 
	C2.019981,417.155273 1.832088,417.049683 1.322097,416.972046 
	C1.000000,279.664246 0.993455,142.328522 1.101617,4.992851 
	C1.102606,3.737423 -0.948950,0.686811 3.500000,1.000000 
	C4.095158,2.322399 4.273814,3.644811 4.273618,4.967196 
	C4.253388,140.981400 4.219863,276.995605 4.183241,413.009827 
	C4.182972,414.008118 4.129034,415.006378 3.785541,416.552673 
	C3.049908,417.154053 2.628890,417.207458 2.207873,417.260864 
z"/>
<path fill="#CCEFEC" opacity="1.000000" stroke="none" 
	d="
M1196.750000,1.000000 
	C1196.930908,1.291288 1196.795288,1.547250 1196.411621,1.890653 
	C1196.166382,1.850306 1196.102539,1.687191 1196.019409,1.262038 
	C1196.000000,1.000000 1196.500000,1.000000 1196.750000,1.000000 
z"/>
<path fill="#FFFFFF" opacity="1.000000" stroke="none" 
	d="
M404.428772,408.681702 
	C402.335632,408.891815 400.670532,408.958130 399.005432,408.958221 
	C274.009735,408.962982 149.014053,408.962799 24.018372,408.961761 
	C17.043282,408.961731 17.035965,408.956879 17.035887,402.201752 
	C17.034410,275.372803 17.034302,148.543839 17.036232,21.714880 
	C17.036333,15.097861 17.045933,15.089464 23.682779,15.089375 
	C149.011780,15.087689 274.340820,15.115764 399.669708,14.986975 
	C404.675232,14.981833 406.177521,16.290531 406.171997,21.411282 
	C406.035034,148.573410 406.069733,275.735718 406.014343,402.897980 
	C406.013550,404.767822 405.259369,406.637329 404.428772,408.681702 
M288.114044,207.484772 
	C288.437378,214.413635 289.456146,221.392883 288.958679,228.262299 
	C287.193237,252.639709 276.794037,272.489929 256.817474,287.060913 
	C240.853928,298.704834 222.548721,301.757996 203.441589,301.854004 
	C178.279282,301.980438 153.116257,301.992371 127.953545,301.994720 
	C114.122787,301.996002 100.291458,301.926636 86.461693,301.772095 
	C83.483749,301.738800 81.860748,302.291077 81.893806,305.840454 
	C82.024155,319.837036 81.928658,333.836121 81.851929,347.833954 
	C81.832077,351.455231 83.584869,353.058533 87.071785,352.884216 
	C91.219650,352.676849 95.364998,352.133545 99.508156,352.165131 
	C122.317795,352.338989 145.126129,352.800201 167.935532,352.844971 
	C181.412247,352.871429 194.917709,352.740448 208.358902,351.879272 
	C219.423187,351.170349 230.652527,350.292358 241.390762,347.734619 
	C279.563202,338.642395 309.289825,317.771912 327.719818,282.465912 
	C340.379059,258.214874 343.195648,232.219238 340.111603,205.348495 
	C337.200500,179.984268 327.581482,157.446716 310.725983,138.329437 
	C284.298065,108.355301 250.053909,94.325089 210.853699,93.335602 
	C169.553085,92.293106 128.205002,93.167160 86.877945,93.074806 
	C82.911705,93.065933 81.689224,94.428635 81.766113,98.319244 
	C82.013016,110.813629 81.955666,123.314140 82.000908,135.812347 
	C82.027748,143.226517 82.015846,143.147751 89.196457,143.201080 
	C127.505020,143.485580 165.815018,143.688202 204.120255,144.223877 
	C212.390381,144.339554 220.798111,144.958511 228.876480,146.630692 
	C261.785339,153.442642 279.551453,175.539017 288.114044,207.484772 
M216.753586,238.413055 
	C216.753525,226.261185 216.648132,214.107849 216.816528,201.958313 
	C216.868149,198.234070 215.555344,197.087540 211.875092,197.096298 
	C169.760101,197.196594 127.644699,197.191772 85.529648,197.102875 
	C82.087273,197.095596 80.886406,198.118408 80.927666,201.658508 
	C81.096458,216.138885 80.995590,230.622345 81.017113,245.104630 
	C81.018280,245.891830 81.228966,246.678726 81.419350,248.002945 
	C83.579262,248.002945 85.527527,248.002960 87.475784,248.002960 
	C127.759926,248.002960 168.044098,248.026459 208.328186,247.985107 
	C217.486816,247.975708 216.707932,249.452133 216.753586,238.413055 
z"/>
<path fill="#FEFEFF" opacity="1.000000" stroke="none" 
	d="
M590.040588,169.805267 
	C631.456299,167.729004 662.916321,201.472290 669.298950,230.869232 
	C678.668762,274.025085 650.212708,317.737122 606.779663,325.990906 
	C584.267822,330.268890 563.874084,325.676147 545.153442,312.776062 
	C543.534302,311.660370 541.907227,310.556213 538.986450,308.560028 
	C538.986450,312.247223 539.036011,314.759918 538.976501,317.270081 
	C538.836243,323.188232 535.724915,326.656006 529.825012,326.871704 
	C526.553894,326.991241 523.105408,326.830994 520.001221,325.907837 
	C514.919189,324.396515 512.045288,320.673981 511.896759,315.171082 
	C511.860809,313.838867 511.859436,312.505432 511.859406,311.172577 
	C511.857849,244.520981 511.857147,177.869385 511.863159,111.217796 
	C511.863342,109.385880 511.857971,107.548187 511.990784,105.723061 
	C512.531738,98.291290 519.400085,91.262573 526.103088,91.222000 
	C532.313232,91.184410 538.813110,98.589859 538.962830,106.132324 
	C539.108337,113.461426 539.026245,120.795044 539.043518,128.126678 
	C539.086365,146.289185 539.129089,164.451706 539.170837,182.614212 
	C539.174927,184.378372 539.171448,186.142578 539.765747,188.509399 
	C553.876099,174.956589 571.111572,170.739304 590.040588,169.805267 
M633.299866,218.256958 
	C620.757141,202.601532 604.597900,195.838638 584.563171,197.945068 
	C558.752625,200.658752 537.807556,224.851593 539.192932,250.693954 
	C540.796448,280.605682 567.441101,302.861206 597.201660,299.146942 
	C636.852051,294.198364 656.280151,251.486832 633.299866,218.256958 
z"/>
<path fill="#FDFEFF" opacity="1.000000" stroke="none" 
	d="
M844.101562,227.290115 
	C846.004517,226.143646 847.660889,225.036591 849.048950,223.659164 
	C865.367249,207.465988 881.673157,191.260101 897.913757,174.989059 
	C901.818115,171.077393 906.175049,168.991455 911.813416,170.004700 
	C920.827026,171.624435 925.579590,179.810715 921.945129,188.261459 
	C920.737183,191.070221 918.662781,193.671204 916.483765,195.871124 
	C900.539551,211.967865 884.552307,228.024582 868.368225,243.879089 
	C864.955994,247.221863 864.831177,249.309860 868.280640,252.726898 
	C883.547546,267.850525 898.536560,283.254181 913.687073,298.496002 
	C918.414734,303.252075 921.584167,308.701996 922.463135,315.433990 
	C923.172241,320.864960 921.735840,323.767761 916.795593,325.693604 
	C908.973145,328.742981 902.251038,327.060608 896.332947,321.052307 
	C880.316956,304.792175 864.180176,288.651062 848.082397,272.471558 
	C846.818970,271.201630 845.486694,270.000153 843.839355,268.437683 
	C842.294556,269.895660 840.968811,271.087280 839.708984,272.344940 
	C823.320862,288.705353 806.907227,305.040619 790.589417,321.471008 
	C787.248169,324.835358 783.555603,327.092987 778.722961,326.812897 
	C773.824951,326.528961 768.894287,325.998322 766.566467,320.679810 
	C764.127686,315.107666 764.193420,309.668182 768.119690,304.690216 
	C769.147339,303.387207 770.334290,302.201385 771.514099,301.028107 
	C787.814758,284.817017 804.040588,268.528687 820.510864,252.491501 
	C823.734558,249.352554 823.585388,247.640732 820.459534,244.584869 
	C804.021057,228.514801 787.757202,212.264420 771.572754,195.937866 
	C769.290161,193.635162 767.298096,190.778076 766.010864,187.813187 
	C763.676758,182.436844 765.000793,176.959824 768.729248,172.905029 
	C772.417480,168.893951 777.962891,169.012482 782.737000,170.783066 
	C786.015808,171.999146 789.038330,174.453903 791.609863,176.939987 
	C807.538086,192.338837 823.296875,207.912796 839.142761,223.397079 
	C840.559326,224.781281 842.195862,225.940323 844.101562,227.290115 
z"/>
<path fill="#FDFEFF" opacity="1.000000" stroke="none" 
	d="
M958.063965,198.197693 
	C967.054504,177.670685 983.649475,169.594421 1004.505188,169.211456 
	C1020.135925,168.924423 1035.790649,169.602112 1051.427002,170.094345 
	C1060.361572,170.375626 1063.126709,174.015976 1063.017944,184.344223 
	C1062.925415,193.132355 1058.787109,197.870667 1050.618042,197.953629 
	C1034.122559,198.121140 1017.624634,198.024353 1001.128296,198.127289 
	C990.944153,198.190826 984.148254,203.647751 983.011414,212.456085 
	C981.775513,222.032745 987.130615,230.845993 996.093628,233.420029 
	C998.752991,234.183746 1001.674744,234.128891 1004.485046,234.255630 
	C1017.940735,234.862518 1031.531128,234.416779 1044.826904,236.191818 
	C1066.229614,239.049103 1080.627075,255.345169 1082.817505,277.084412 
	C1084.755249,296.315216 1071.828857,317.492859 1053.519409,324.373840 
	C1049.409790,325.918365 1044.777466,326.689270 1040.374634,326.734131 
	C1016.214844,326.980255 992.051697,326.910614 967.889648,326.903778 
	C959.147766,326.901276 955.313538,323.912872 955.059937,317.108459 
	C954.654297,306.224457 958.950989,300.051758 967.890320,299.955017 
	C989.715698,299.718872 1011.545593,299.939636 1033.373291,299.867798 
	C1044.883789,299.829895 1052.323730,294.210266 1054.236694,284.420166 
	C1056.465454,273.013611 1048.880127,263.275665 1037.225098,262.999817 
	C1027.232422,262.763336 1017.227539,263.084381 1007.232361,262.910248 
	C995.650513,262.708466 984.406128,261.426331 974.577820,254.128113 
	C957.019043,241.089417 950.392029,219.472107 958.063965,198.197693 
z"/>
<path fill="#FEFFFF" opacity="1.000000" stroke="none" 
	d="
M730.997681,272.000000 
	C730.997498,286.492981 731.025818,300.486053 730.986450,314.478912 
	C730.962524,322.987885 726.771912,326.877899 717.754395,326.911469 
	C708.063049,326.947540 703.894104,323.389801 703.884521,314.665314 
	C703.836060,270.520874 703.834473,226.376312 703.885925,182.231873 
	C703.896179,173.406815 708.089294,170.001083 718.316406,170.087601 
	C726.887756,170.160126 730.979492,174.124710 730.986938,182.544708 
	C731.013123,212.196442 730.997437,241.848236 730.997681,272.000000 
z"/>
<path fill="#CAEEEC" opacity="1.000000" stroke="none" 
	d="
M723.399536,108.242577 
	C730.032166,111.640450 733.098206,116.909645 732.611816,123.848701 
	C732.137939,130.609558 727.374817,136.251938 721.528564,137.889709 
	C715.488892,139.581635 709.414062,137.422287 705.661743,132.249771 
	C701.793396,126.917336 701.861023,119.186378 705.825623,113.513641 
	C709.691528,107.982292 715.796936,106.061546 723.399536,108.242577 
z"/>
<path fill="#7FCCFE" opacity="1.000000" stroke="none" 
	d="
M11.803234,421.602356 
	C6.579104,424.158325 4.782746,423.451385 4.151845,418.310699 
	C6.672757,419.050903 9.122396,420.201935 11.803234,421.602356 
z"/>
<path fill="#7FCCFE" opacity="1.000000" stroke="none" 
	d="
M2.357556,417.477600 
	C2.628890,417.207458 3.049908,417.154053 3.782765,417.017151 
	C4.094604,416.933624 4.066512,417.356354 4.063316,417.566650 
	C3.542495,417.749451 3.024867,417.721893 2.357556,417.477600 
z"/>
<path fill="#1692CC" opacity="1.000000" stroke="none" 
	d="
M375.820068,503.599274 
	C370.911926,508.028442 371.043488,510.587341 376.747192,512.662842 
	C385.316223,515.781006 394.205017,518.014771 402.801331,521.065613 
	C408.093445,522.943909 413.411713,525.129395 418.166718,528.069031 
	C432.873016,537.160706 433.075287,556.901184 418.334259,566.044312 
	C413.270020,569.185425 407.100952,571.080933 401.182495,572.191711 
	C390.617035,574.174622 379.969116,573.496826 369.669464,569.996765 
	C359.766724,566.631592 353.800293,559.479004 350.481659,549.808044 
	C349.251038,546.221802 350.575653,544.829163 354.201294,544.973206 
	C357.028137,545.085571 359.875031,545.159363 362.691528,544.954651 
	C366.636719,544.667847 369.815186,545.060974 371.377197,549.599243 
	C371.938049,551.228821 374.005920,552.641785 375.711517,553.524719 
	C384.592926,558.122437 393.851624,558.614868 403.197113,555.139404 
	C407.136780,553.674255 410.352997,551.041748 409.883545,546.307312 
	C409.442963,541.864197 405.768799,540.931519 402.068970,539.885559 
	C391.052795,536.771240 380.009460,533.688477 369.179962,529.997253 
	C359.073822,526.552612 353.375092,518.483215 353.421417,509.167023 
	C353.466736,500.053070 359.176392,492.293213 368.978668,488.664032 
	C381.334503,484.089478 393.984406,483.243317 406.657043,487.162689 
	C414.805267,489.682770 420.962067,494.692749 424.232727,502.919525 
	C425.685974,506.574860 424.523895,508.370483 420.916016,508.859802 
	C414.302277,509.756775 408.286957,508.904694 402.472595,504.830902 
	C394.247711,499.068146 385.185211,498.798523 375.820068,503.599274 
z"/>
<path fill="#1692CC" opacity="1.000000" stroke="none" 
	d="
M85.994751,492.996643 
	C94.710960,502.325745 95.698586,512.645813 91.144073,523.766846 
	C86.207764,535.820190 76.024277,539.946655 64.107620,540.876709 
	C58.153267,541.341370 52.134449,541.053772 46.146049,540.989441 
	C38.689774,540.909363 38.703300,540.857117 38.786522,548.089600 
	C38.865070,554.915588 38.817417,561.744690 39.015213,568.566956 
	C39.108173,571.773315 37.918114,573.190918 34.666706,573.014893 
	C32.176888,572.880127 29.673292,573.001282 27.175819,573.006104 
	C19.202831,573.021423 19.201532,573.020935 19.213455,564.782471 
	C19.249119,540.140381 19.388266,515.497559 19.230108,490.856720 
	C19.200815,486.292816 20.482925,484.754974 25.156992,484.913788 
	C40.114670,485.421997 55.130459,484.947449 70.028717,486.091064 
	C75.403702,486.503693 80.509315,490.425293 85.994751,492.996643 
M42.771965,501.002594 
	C39.469406,500.574097 37.708294,501.663544 38.074345,505.350464 
	C38.303371,507.657257 38.123562,510.004608 38.128109,512.333740 
	C38.153221,525.200134 38.155155,525.275085 50.899559,524.961731 
	C55.516514,524.848206 60.271172,524.877136 64.695808,523.771667 
	C70.317108,522.367188 73.274895,517.908997 73.238983,512.886414 
	C73.202988,507.850586 70.164124,503.909668 64.529099,502.059418 
	C62.518204,501.399109 60.317337,501.112946 58.191357,501.048920 
	C53.371056,500.903748 48.543407,501.002686 42.771965,501.002594 
z"/>
<path fill="#1591CC" opacity="1.000000" stroke="none" 
	d="
M973.053711,565.958008 
	C962.202515,555.341675 960.894165,542.597900 964.391357,529.200562 
	C968.869934,512.043396 988.591309,503.794769 1004.352844,511.949066 
	C1006.662415,513.143921 1008.997559,514.289429 1012.102783,515.851013 
	C1012.102783,505.052032 1012.102783,495.070007 1012.102783,484.923553 
	C1018.632080,484.923553 1024.715454,484.923553 1031.259644,484.923553 
	C1031.358765,487.117310 1031.517822,488.900818 1031.507935,490.683411 
	C1031.366455,516.155945 1031.072510,541.628723 1031.154297,567.100342 
	C1031.170288,572.107544 1029.382690,573.681030 1024.768555,573.143738 
	C1022.790283,572.913513 1020.770569,573.052063 1018.787781,572.847229 
	C1015.378967,572.494873 1012.600464,571.348694 1013.002014,566.552795 
	C999.436035,572.840759 986.171143,577.856506 973.053711,565.958008 
M1003.252991,556.169434 
	C1010.733154,552.357117 1014.527405,546.029907 1013.487854,539.102112 
	C1012.292786,531.138550 1007.143127,525.917175 999.223999,524.639709 
	C992.504211,523.555664 985.370728,527.200439 982.403625,533.614746 
	C979.609070,539.655884 980.003967,545.665833 984.161682,550.994507 
	C988.899719,557.067017 995.270264,558.383423 1003.252991,556.169434 
z"/>
<path fill="#1591CC" opacity="1.000000" stroke="none" 
	d="
M735.422546,541.605347 
	C728.107178,522.859924 720.968262,504.461121 713.454529,485.096252 
	C720.401611,485.096252 726.620911,484.849792 732.789246,485.301086 
	C734.046448,485.393066 735.550781,487.941864 736.197632,489.641174 
	C742.816162,507.029266 749.276306,524.477661 755.797791,541.902710 
	C756.351318,543.381714 757.028564,544.814270 758.192871,547.545898 
	C759.644226,544.963806 760.636169,543.589417 761.241821,542.061829 
	C768.099121,524.765625 775.000916,507.485565 781.630920,490.102020 
	C783.103394,486.241455 785.071411,484.485718 789.305115,484.813843 
	C793.705872,485.154938 798.153687,484.889862 803.291870,484.889862 
	C802.560303,487.281158 802.256348,488.694458 801.707764,490.005463 
	C790.933167,515.756531 780.057190,541.465576 769.407166,567.267944 
	C767.705200,571.391357 765.475586,573.249634 760.867737,573.079163 
	C744.734924,572.482544 749.114929,575.803528 743.021301,560.991028 
	C740.430237,554.692749 738.066162,548.301086 735.422546,541.605347 
z"/>
<path fill="#1692CC" opacity="1.000000" stroke="none" 
	d="
M1074.042236,536.089539 
	C1078.068115,535.402222 1081.774170,535.082275 1085.210938,533.947021 
	C1086.709229,533.452087 1088.398804,531.383606 1088.602051,529.844849 
	C1088.747803,528.740417 1086.802979,526.651062 1085.392334,526.170227 
	C1078.540649,523.834839 1072.095825,523.944397 1066.564209,529.783813 
	C1065.273193,531.146545 1062.603516,531.523926 1060.511353,531.708191 
	C1058.769409,531.861633 1056.942139,531.076355 1055.156006,530.690857 
	C1048.081665,529.163757 1047.575195,527.970032 1051.276367,521.487122 
	C1055.604004,513.906860 1062.642212,510.356873 1070.842896,509.202545 
	C1080.365723,507.862122 1089.786377,508.986816 1098.869141,512.247192 
	C1106.021118,514.814453 1107.666260,520.864380 1107.813599,527.491272 
	C1107.991455,535.481628 1107.353760,543.510803 1107.900146,551.466064 
	C1108.381226,558.472717 1110.006470,565.400879 1111.233398,573.028687 
	C1106.355713,573.028687 1100.932007,573.139832 1095.522339,572.915222 
	C1094.658325,572.879272 1093.450684,571.473816 1093.112427,570.463562 
	C1092.437012,568.447327 1092.254761,566.265869 1091.715454,563.313965 
	C1089.655029,564.708130 1088.058472,565.734070 1086.518677,566.839355 
	C1076.787231,573.824219 1066.494629,575.181030 1055.458618,570.148254 
	C1049.447754,567.407104 1045.958008,563.057373 1045.918457,556.270630 
	C1045.877441,549.212036 1049.050293,543.800476 1055.450928,541.231689 
	C1061.253418,538.902954 1067.539917,537.780334 1074.042236,536.089539 
M1087.222778,553.608582 
	C1087.740601,551.201843 1088.393433,548.807251 1088.613892,546.373596 
	C1088.643188,546.051453 1086.414551,545.053833 1085.327148,545.181335 
	C1080.077026,545.797363 1074.751587,546.297180 1069.685547,547.686584 
	C1067.740479,548.219971 1066.413330,551.006836 1064.804688,552.766785 
	C1066.587402,554.150085 1068.454712,556.797241 1070.137207,556.684448 
	C1075.628906,556.316406 1081.052979,554.941956 1087.222778,553.608582 
z"/>
<path fill="#1592CC" opacity="1.000000" stroke="none" 
	d="
M561.854309,570.014160 
	C552.824768,574.349304 544.168091,573.875061 535.484131,570.116638 
	C529.746582,567.633423 526.639465,563.266846 526.011292,557.132385 
	C525.323669,550.417419 528.074219,544.945496 534.016846,542.351990 
	C540.484985,539.529236 547.526306,537.972229 554.386475,536.117859 
	C557.253296,535.342896 560.304077,535.266113 563.258911,534.794739 
	C566.009216,534.355896 569.211243,533.422302 568.519043,530.181396 
	C568.109131,528.262634 565.385071,525.975220 563.296265,525.442322 
	C557.394531,523.936584 551.766113,524.946228 547.131653,529.478577 
	C544.393372,532.156494 533.078674,532.020935 530.666077,529.020752 
	C529.706116,527.827026 529.456665,525.188232 530.092102,523.736023 
	C532.901367,517.315186 538.006775,513.154907 544.549011,510.792297 
	C556.466675,506.488495 568.206665,507.742767 579.475098,512.823425 
	C586.524658,516.001953 587.523376,523.052673 587.900085,529.774414 
	C588.458679,539.741699 588.296448,549.750427 588.897278,559.713989 
	C589.151001,563.921692 590.565308,568.059448 591.604797,572.946838 
	C586.248657,572.946838 580.844238,573.089417 575.462646,572.802795 
	C574.592468,572.756531 573.491821,570.915161 573.083069,569.705811 
	C572.407288,567.705811 572.207886,565.544861 571.700745,562.892029 
	C568.231445,565.440796 565.217224,567.655273 561.854309,570.014160 
M547.047241,555.792664 
	C552.983337,557.845703 558.983887,557.695007 564.493103,554.915466 
	C566.655945,553.824219 568.133484,551.008057 569.346497,548.677307 
	C569.624512,548.143066 567.447205,545.280945 566.532410,545.346313 
	C560.579651,545.771362 554.583069,546.337830 548.761780,547.600220 
	C544.432495,548.539124 543.477112,552.573975 547.047241,555.792664 
z"/>
<path fill="#1591CC" opacity="1.000000" stroke="none" 
	d="
M122.689377,572.732910 
	C120.093742,571.830872 117.866608,571.139526 115.747787,570.203064 
	C109.105659,567.267517 105.923553,562.103760 105.971405,554.843689 
	C106.018501,547.698730 109.899162,543.028076 116.226921,541.052551 
	C124.270592,538.541382 132.621078,537.011353 140.843246,535.075134 
	C142.296387,534.732971 143.991669,534.826965 145.174149,534.082581 
	C146.544205,533.220154 148.284134,531.703857 148.365189,530.379700 
	C148.448349,529.021240 147.047867,526.918030 145.730743,526.239624 
	C139.651535,523.108459 132.143280,524.452942 127.206482,529.563293 
	C123.950653,532.933655 120.310944,531.155396 116.867142,530.813843 
	C107.929550,529.927551 106.843575,527.432007 112.203911,520.016296 
	C119.082314,510.500580 129.302231,508.514954 140.088272,508.601379 
	C144.525024,508.636932 149.035095,509.475952 153.367661,510.537720 
	C163.151367,512.935425 167.224426,518.026550 167.930054,528.118042 
	C168.127289,530.938782 168.121185,533.775024 168.167892,536.604736 
	C168.363785,548.472107 166.004105,560.552551 172.126144,572.941589 
	C165.969330,572.941589 160.749435,573.118835 155.563644,572.777771 
	C154.632401,572.716553 153.565765,570.621704 153.057602,569.278137 
	C152.453232,567.680237 152.384354,565.879822 151.972961,563.538391 
	C142.709930,569.322937 133.986801,574.656372 122.689377,572.732910 
M125.906921,554.550964 
	C132.278885,559.190674 144.503143,557.869873 148.246094,551.901245 
	C149.185287,550.403625 149.567200,548.087830 149.143280,546.417542 
	C148.953690,545.670471 146.079178,545.096436 144.531937,545.294373 
	C139.123749,545.986206 133.791336,547.315918 128.375717,547.889893 
	C123.632484,548.392456 122.952431,550.267334 125.906921,554.550964 
z"/>
<path fill="#1692CC" opacity="1.000000" stroke="none" 
	d="
M259.408295,525.907532 
	C258.737701,526.202393 258.323181,526.280518 258.168213,526.523865 
	C253.481018,533.885193 246.928360,531.404358 240.454620,530.071594 
	C236.716309,529.302002 236.266266,527.451355 237.655258,524.374512 
	C240.942474,517.092773 246.373154,511.508850 254.134262,510.467712 
	C262.892853,509.292786 272.062561,509.054688 280.786163,510.292694 
	C291.372070,511.794983 295.728455,518.576233 295.899628,529.281189 
	C296.082611,540.728027 296.452179,552.176697 297.048553,563.608521 
	C297.197601,566.465332 298.530731,569.260376 299.563354,572.955933 
	C293.863464,572.955933 288.781586,573.135864 283.733917,572.800537 
	C282.752716,572.735291 281.508789,570.789490 281.095306,569.486145 
	C280.575378,567.847168 280.785217,565.976685 280.615112,563.111084 
	C278.230957,564.535889 276.569275,565.365417 275.086609,566.441589 
	C265.972748,573.056885 256.181549,575.036072 245.447327,570.969543 
	C238.350266,568.280884 234.220718,562.976196 233.969360,556.198975 
	C233.701370,548.973206 236.721832,543.604431 244.479706,541.068909 
	C252.779236,538.356384 261.497620,536.868347 270.094452,535.152771 
	C273.204285,534.532104 276.374268,534.206848 276.677673,530.427979 
	C277.005005,526.351135 273.409454,525.545166 270.578979,525.268616 
	C267.031250,524.921997 263.387634,525.556702 259.408295,525.907532 
M255.094681,548.353882 
	C250.859528,552.269470 251.386093,555.009460 256.758575,556.673645 
	C263.811493,558.858582 270.272461,557.165771 275.951752,552.911926 
	C277.220581,551.961487 277.633881,549.188721 277.489624,547.328796 
	C277.421143,546.446228 275.018372,544.941833 273.836609,545.083496 
	C267.791962,545.807800 261.800598,546.976929 255.094681,548.353882 
z"/>
<path fill="#1592CC" opacity="1.000000" stroke="none" 
	d="
M858.890015,544.968994 
	C845.713440,544.969299 833.019958,544.969299 819.963623,544.969299 
	C822.917114,556.033508 831.451111,560.254944 842.106018,555.715820 
	C849.119568,552.727966 855.349670,554.346619 861.947998,555.600647 
	C865.452087,556.266541 866.035950,558.340881 863.929382,560.938538 
	C855.156860,571.756165 843.189575,574.201782 830.223206,572.897522 
	C819.097717,571.778503 809.270142,567.449280 804.793091,556.395203 
	C799.872742,544.246216 799.612183,531.806396 807.978699,520.847961 
	C816.095276,510.217072 827.900757,507.970215 840.324646,509.514984 
	C857.932800,511.704285 867.479126,523.196289 867.699585,541.181580 
	C867.733826,543.972412 866.656372,545.182129 863.867676,544.985535 
	C862.376465,544.880432 860.871704,544.968018 858.890015,544.968994 
M840.416931,533.000488 
	C842.969055,533.000488 845.521240,533.000488 848.178040,533.000488 
	C846.963989,526.836487 842.857849,524.642151 834.060730,524.788391 
	C825.759216,524.926453 822.106689,527.118347 821.204834,533.000488 
	C827.331604,533.000488 833.386902,533.000488 840.416931,533.000488 
z"/>
<path fill="#1592CC" opacity="1.000000" stroke="none" 
	d="
M501.009796,508.887268 
	C504.136414,508.887268 506.779663,508.887268 509.933502,508.887268 
	C510.118347,511.160706 510.397186,513.077454 510.410950,514.995972 
	C510.535309,532.327637 510.512543,549.661133 510.772644,566.990479 
	C510.841156,571.555420 509.240875,573.448608 504.649963,573.023621 
	C502.175720,572.794556 499.600098,573.385437 497.177643,572.973999 
	C495.702606,572.723389 493.477234,571.469482 493.235565,570.320068 
	C492.211761,565.451172 489.916870,566.987793 487.184662,568.547424 
	C476.342773,574.736023 465.435974,575.158630 454.515106,568.694580 
	C450.217773,566.151001 447.225647,562.364624 447.137146,557.469543 
	C446.848846,541.522522 447.029175,525.567139 447.029175,509.248535 
	C452.329559,509.248535 458.249451,509.248535 465.007355,509.248535 
	C465.007355,511.686493 465.005371,514.265808 465.007721,516.845154 
	C465.016113,526.011169 465.005188,535.177307 465.041260,544.343262 
	C465.075073,552.931030 467.981415,556.536133 475.136597,556.969788 
	C483.102325,557.452515 490.505676,552.646606 490.982361,545.653381 
	C491.604034,536.532776 491.247589,527.344788 491.289215,518.185669 
	C491.338684,507.295929 490.104553,509.061401 501.009796,508.887268 
z"/>
<path fill="#1591CC" opacity="1.000000" stroke="none" 
	d="
M901.611450,546.018982 
	C901.701477,553.842285 901.656067,561.173279 901.914551,568.493530 
	C902.038574,572.005920 900.751465,573.272644 897.274170,573.058777 
	C893.793335,572.844666 890.278931,572.956787 886.791077,573.145264 
	C883.833252,573.305115 882.608459,572.272217 882.640930,569.170837 
	C882.837952,550.355103 882.943481,531.537964 882.966919,512.721130 
	C882.970398,509.918488 883.925354,508.745361 886.743591,508.969299 
	C888.563782,509.113922 890.413330,509.108490 892.234985,508.972717 
	C896.887451,508.625946 901.439331,508.294739 899.951050,516.315796 
	C902.716431,515.097534 904.370483,514.093262 906.164246,513.628418 
	C912.507568,511.984711 918.863586,509.431915 925.279175,509.225647 
	C938.350037,508.805481 946.118652,516.100769 946.722412,529.078857 
	C947.348572,542.538391 947.042542,556.046875 946.843872,569.529541 
	C946.826599,570.703369 944.672302,572.680054 943.336487,572.841309 
	C939.561401,573.296997 935.689087,572.864014 931.867615,573.045532 
	C928.666809,573.197510 927.929382,571.669861 927.957214,568.813354 
	C928.057678,558.489929 928.025879,548.164734 927.986267,537.840515 
	C927.952454,529.039551 925.018005,525.182373 918.289368,524.927002 
	C908.630310,524.560425 902.265259,529.321777 901.631653,537.535706 
	C901.427490,540.182922 901.600464,542.859253 901.611450,546.018982 
z"/>
<path fill="#1692CC" opacity="1.000000" stroke="none" 
	d="
M621.084229,509.924500 
	C635.846802,507.871033 649.837952,507.370361 660.880310,519.240417 
	C664.409790,523.034424 663.953125,524.652100 658.962463,525.877136 
	C656.705750,526.431030 654.381104,526.751343 652.171997,527.446716 
	C648.485657,528.607239 645.892273,528.366577 643.406982,524.558167 
	C640.053284,519.418945 625.194946,519.350830 620.854614,523.920776 
	C618.349854,526.557922 619.874817,528.160156 622.484009,529.043762 
	C627.669678,530.799805 632.944946,532.289490 638.150208,533.990051 
	C644.142883,535.947815 650.319885,537.531921 656.027466,540.132812 
	C668.555603,545.841675 669.895996,558.587341 658.510803,566.374878 
	C653.906128,569.524475 648.006165,571.466492 642.436523,572.382751 
	C628.911804,574.607727 615.814514,573.194214 604.721375,563.983826 
	C603.208496,562.727722 602.397339,560.626526 601.261292,558.916687 
	C602.905090,557.918579 604.469177,556.745483 606.207031,555.953857 
	C612.525574,553.075684 618.123230,553.889954 623.835510,558.251282 
	C630.379517,563.247681 638.595947,562.689758 645.129578,557.705627 
	C646.328308,556.791138 647.843750,555.017578 647.654175,553.906555 
	C647.454407,552.735535 645.528870,551.382874 644.110229,550.980286 
	C638.689575,549.442017 633.121643,548.422913 627.700256,546.886841 
	C622.605835,545.443298 617.470520,543.948853 612.636658,541.830139 
	C606.550354,539.162537 602.814636,534.406128 603.073120,527.395569 
	C603.338562,520.195557 607.030151,515.207092 613.607422,512.408752 
	C615.889282,511.437866 618.309204,510.791534 621.084229,509.924500 
z"/>
<path fill="#1692CC" opacity="1.000000" stroke="none" 
	d="
M1167.220459,556.182617 
	C1168.757080,551.354614 1165.251953,550.883301 1162.448120,550.162415 
	C1153.766602,547.930115 1144.958252,546.155579 1136.354736,543.665771 
	C1127.837280,541.200928 1123.518921,535.697205 1123.122437,528.089294 
	C1122.752686,520.991638 1127.182373,514.971252 1135.300049,511.580322 
	C1136.524292,511.068939 1137.757080,510.516327 1139.040649,510.218872 
	C1149.487305,507.798004 1159.924927,507.726318 1169.872681,511.989746 
	C1173.874146,513.704712 1177.633057,516.488525 1180.796265,519.522278 
	C1184.350098,522.930847 1183.612183,524.608337 1178.952515,525.862122 
	C1176.549194,526.508789 1174.100586,527.005676 1171.730957,527.755249 
	C1168.097534,528.904602 1165.561157,528.263916 1163.380005,524.692566 
	C1162.302368,522.928101 1159.547607,521.378784 1157.440796,521.222168 
	C1153.181030,520.905396 1148.810181,521.368713 1144.559570,522.006348 
	C1142.938965,522.249451 1141.522461,523.853699 1140.012939,524.837585 
	C1141.329712,526.546448 1142.301025,528.984192 1144.037476,529.807007 
	C1147.293213,531.349670 1151.004272,531.915955 1154.503540,532.962952 
	C1161.182495,534.961243 1167.860107,536.965942 1174.511230,539.054565 
	C1180.512817,540.939331 1184.734009,544.753662 1185.862671,551.092651 
	C1186.995728,557.455933 1184.249756,562.455872 1179.296265,566.303467 
	C1172.996460,571.196594 1165.638306,572.903870 1157.841309,573.285889 
	C1148.018188,573.767090 1138.589966,572.279297 1129.942505,567.413025 
	C1127.369751,565.965332 1124.953369,564.061279 1122.869507,561.964600 
	C1119.587646,558.662476 1120.158936,557.187866 1124.782471,556.107056 
	C1127.045166,555.578064 1129.398071,555.362610 1131.599854,554.659546 
	C1135.616577,553.376709 1138.724365,553.993774 1141.966675,557.094666 
	C1148.530762,563.372375 1158.264404,562.905762 1167.220459,556.182617 
z"/>
<path fill="#1692CC" opacity="1.000000" stroke="none" 
	d="
M192.232635,508.930176 
	C201.409103,508.892578 201.409103,508.892578 203.742599,512.852600 
	C210.603668,511.503601 216.911255,510.015686 223.302094,509.125610 
	C225.955093,508.756195 229.265503,508.968811 229.877579,512.827576 
	C230.399551,516.118347 227.324265,520.128662 223.663986,520.775024 
	C221.557236,521.147034 219.350983,520.921875 217.195084,521.055176 
	C210.178177,521.489075 206.311966,524.799622 205.925186,531.808960 
	C205.267227,543.733154 204.907303,555.685547 204.889679,567.626770 
	C204.883728,571.657776 204.148392,573.154907 199.793243,573.107117 
	C186.014160,572.955811 186.010162,573.128174 186.032562,559.333435 
	C186.056610,544.526733 186.181793,529.719238 186.050369,514.913940 
	C186.013016,510.708221 187.385864,508.558777 192.232635,508.930176 
z"/>
<path fill="#7FCCFE" opacity="1.000000" stroke="none" 
	d="
M288.066254,207.057739 
	C279.551453,175.539017 261.785339,153.442642 228.876480,146.630692 
	C220.798111,144.958511 212.390381,144.339554 204.120255,144.223877 
	C165.815018,143.688202 127.505020,143.485580 89.196457,143.201080 
	C82.015846,143.147751 82.027748,143.226517 82.000908,135.812347 
	C81.955666,123.314140 82.013016,110.813629 81.766113,98.319244 
	C81.689224,94.428635 82.911705,93.065933 86.877945,93.074806 
	C128.205002,93.167160 169.553085,92.293106 210.853699,93.335602 
	C250.053909,94.325089 284.298065,108.355301 310.725983,138.329437 
	C327.581482,157.446716 337.200500,179.984268 340.111603,205.348495 
	C343.195648,232.219238 340.379059,258.214874 327.719818,282.465912 
	C309.289825,317.771912 279.563202,338.642395 241.390762,347.734619 
	C230.652527,350.292358 219.423187,351.170349 208.358902,351.879272 
	C194.917709,352.740448 181.412247,352.871429 167.935532,352.844971 
	C145.126129,352.800201 122.317795,352.338989 99.508156,352.165131 
	C95.364998,352.133545 91.219650,352.676849 87.071785,352.884216 
	C83.584869,353.058533 81.832077,351.455231 81.851929,347.833954 
	C81.928658,333.836121 82.024155,319.837036 81.893806,305.840454 
	C81.860748,302.291077 83.483749,301.738800 86.461693,301.772095 
	C100.291458,301.926636 114.122787,301.996002 127.953545,301.994720 
	C153.116257,301.992371 178.279282,301.980438 203.441589,301.854004 
	C222.548721,301.757996 240.853928,298.704834 256.817474,287.060913 
	C276.794037,272.489929 287.193237,252.639709 288.958679,228.262299 
	C289.456146,221.392883 288.437378,214.413635 288.066254,207.057739 
z"/>
<path fill="#1491CB" opacity="1.000000" stroke="none" 
	d="
M216.753510,238.896851 
	C216.707932,249.452133 217.486816,247.975708 208.328186,247.985107 
	C168.044098,248.026459 127.759926,248.002960 87.475784,248.002960 
	C85.527527,248.002960 83.579262,248.002945 81.419350,248.002945 
	C81.228966,246.678726 81.018280,245.891830 81.017113,245.104630 
	C80.995590,230.622345 81.096458,216.138885 80.927666,201.658508 
	C80.886406,198.118408 82.087273,197.095596 85.529648,197.102875 
	C127.644699,197.191772 169.760101,197.196594 211.875092,197.096298 
	C215.555344,197.087540 216.868149,198.234070 216.816528,201.958313 
	C216.648132,214.107849 216.753525,226.261185 216.753510,238.896851 
z"/>
<path fill="#1391CB" opacity="1.000000" stroke="none" 
	d="
M633.518311,218.541779 
	C656.280151,251.486832 636.852051,294.198364 597.201660,299.146942 
	C567.441101,302.861206 540.796448,280.605682 539.192932,250.693954 
	C537.807556,224.851593 558.752625,200.658752 584.563171,197.945068 
	C604.597900,195.838638 620.757141,202.601532 633.518311,218.541779 
z"/>
<path fill="#FCFEFE" opacity="1.000000" stroke="none" 
	d="
M43.245354,501.002502 
	C48.543407,501.002686 53.371056,500.903748 58.191357,501.048920 
	C60.317337,501.112946 62.518204,501.399109 64.529099,502.059418 
	C70.164124,503.909668 73.202988,507.850586 73.238983,512.886414 
	C73.274895,517.908997 70.317108,522.367188 64.695808,523.771667 
	C60.271172,524.877136 55.516514,524.848206 50.899559,524.961731 
	C38.155155,525.275085 38.153221,525.200134 38.128109,512.333740 
	C38.123562,510.004608 38.303371,507.657257 38.074345,505.350464 
	C37.708294,501.663544 39.469406,500.574097 43.245354,501.002502 
z"/>
<path fill="#FBFDFE" opacity="1.000000" stroke="none" 
	d="
M1002.877075,556.333740 
	C995.270264,558.383423 988.899719,557.067017 984.161682,550.994507 
	C980.003967,545.665833 979.609070,539.655884 982.403625,533.614746 
	C985.370728,527.200439 992.504211,523.555664 999.223999,524.639709 
	C1007.143127,525.917175 1012.292786,531.138550 1013.487854,539.102112 
	C1014.527405,546.029907 1010.733154,552.357117 1002.877075,556.333740 
z"/>
<path fill="#F9FCFE" opacity="1.000000" stroke="none" 
	d="
M1086.863037,553.781616 
	C1081.052979,554.941956 1075.628906,556.316406 1070.137207,556.684448 
	C1068.454712,556.797241 1066.587402,554.150085 1064.804688,552.766785 
	C1066.413330,551.006836 1067.740479,548.219971 1069.685547,547.686584 
	C1074.751587,546.297180 1080.077026,545.797363 1085.327148,545.181335 
	C1086.414551,545.053833 1088.643188,546.051453 1088.613892,546.373596 
	C1088.393433,548.807251 1087.740601,551.201843 1086.863037,553.781616 
z"/>
<path fill="#F7FBFD" opacity="1.000000" stroke="none" 
	d="
M546.694641,555.614563 
	C543.477112,552.573975 544.432495,548.539124 548.761780,547.600220 
	C554.583069,546.337830 560.579651,545.771362 566.532410,545.346313 
	C567.447205,545.280945 569.624512,548.143066 569.346497,548.677307 
	C568.133484,551.008057 566.655945,553.824219 564.493103,554.915466 
	C558.983887,557.695007 552.983337,557.845703 546.694641,555.614563 
z"/>
<path fill="#F7FBFD" opacity="1.000000" stroke="none" 
	d="
M125.645889,554.267334 
	C122.952431,550.267334 123.632484,548.392456 128.375717,547.889893 
	C133.791336,547.315918 139.123749,545.986206 144.531937,545.294373 
	C146.079178,545.096436 148.953690,545.670471 149.143280,546.417542 
	C149.567200,548.087830 149.185287,550.403625 148.246094,551.901245 
	C144.503143,557.869873 132.278885,559.190674 125.645889,554.267334 
z"/>
<path fill="#F7FBFD" opacity="1.000000" stroke="none" 
	d="
M255.442642,548.172180 
	C261.800598,546.976929 267.791962,545.807800 273.836609,545.083496 
	C275.018372,544.941833 277.421143,546.446228 277.489624,547.328796 
	C277.633881,549.188721 277.220581,551.961487 275.951752,552.911926 
	C270.272461,557.165771 263.811493,558.858582 256.758575,556.673645 
	C251.386093,555.009460 250.859528,552.269470 255.442642,548.172180 
z"/>
<path fill="#FBFDFE" opacity="1.000000" stroke="none" 
	d="
M839.929565,533.000488 
	C833.386902,533.000488 827.331604,533.000488 821.204834,533.000488 
	C822.106689,527.118347 825.759216,524.926453 834.060730,524.788391 
	C842.857849,524.642151 846.963989,526.836487 848.178040,533.000488 
	C845.521240,533.000488 842.969055,533.000488 839.929565,533.000488 
z"/>
</svg>