<?xml version="1.0" encoding="UTF-8"?>
<!-- Generator: visioncortex VTracer 0.6.3 -->
<svg version="1.1" xmlns="http://www.w3.org/2000/svg" width="1280" height="1280">
<path d="M0 0 C422.4 0 844.8 0 1280 0 C1280 422.4 1280 844.8 1280 1280 C857.6 1280 435.2 1280 0 1280 C0 857.6 0 435.2 0 0 Z " fill="#FAFCFC" transform="translate(0,0)"/>
<path d="M0 0 C7.02 4.82 10.78 11.47 15.06 18.69 C15.74 19.81 16.43 20.93 17.13 22.08 C27.94 39.97 27.94 39.97 31 48 C31.66 48 32.32 48 33 48 C33.42 48.83 33.83 49.66 34.26 50.51 C38.85 59.46 44.04 67.92 49.5 76.37 C54.32 83.86 58.9 91.46 63.39 99.15 C68.75 108.34 74.36 117.36 79.96 126.39 C86.45 136.87 92.92 147.32 98.81 158.14 C100.69 161.53 102.72 164.8 104.75 168.09 C108.98 174.9 112.98 181.84 116.94 188.81 C117.64 190.05 118.34 191.28 119.05 192.52 C121.04 196.01 123.02 199.5 125 203 C125.5 203.88 126 204.76 126.51 205.66 C133.31 217.68 139.91 229.79 146.32 242.02 C148.57 246.31 150.85 250.57 153.19 254.81 C158.26 264.07 162.96 273.43 166.76 283.28 C167.93 286.06 167.93 286.06 169.78 288.56 C173.18 293.5 175.41 299.12 177.88 304.56 C178.38 305.67 178.88 306.77 179.4 307.91 C180.42 310.14 181.44 312.38 182.46 314.62 C184.02 318.04 185.59 321.44 187.18 324.85 C193.01 337.48 197.95 350.42 202.79 363.45 C205.07 369.57 207.46 375.61 210.02 381.62 C212.63 387.96 214.46 394.49 216.16 401.13 C217.03 404.09 218.11 406.93 219.21 409.81 C220.62 413.71 221.7 417.7 222.81 421.69 C223.34 423.55 223.86 425.41 224.39 427.28 C224.65 428.22 224.92 429.17 225.19 430.15 C225.98 432.92 226.78 435.68 227.58 438.44 C234.85 463.39 239.9 488.33 241.79 514.3 C241.94 516.23 242.12 518.16 242.31 520.08 C243.04 527.83 242.84 535.09 241.94 542.81 C241.8 544 241.67 545.2 241.53 546.43 C239.77 561.09 237.01 575.55 234 590 C233.77 591.11 233.54 592.22 233.3 593.36 C228.11 617.81 220.7 643.72 209.12 665.94 C208.43 667.29 207.74 668.65 207.04 670 C206.7 670.67 206.36 671.33 206.01 672.02 C205.04 673.93 204.1 675.85 203.18 677.78 C200.17 684 197.03 689.75 192.94 695.31 C191.01 697.99 189.2 700.72 187.4 703.48 C182.69 710.7 177.64 717.46 172 724 C171.41 724.69 170.81 725.39 170.2 726.1 C168.48 728.08 166.74 730.04 165 732 C164 733.15 164 733.15 162.99 734.33 C153.58 745.07 142.96 754.15 131.61 762.77 C130.19 763.85 128.78 764.95 127.37 766.05 C106.36 781.96 81.37 795.38 56.2 803.29 C54.6 803.8 53.02 804.37 51.46 804.96 C42.78 808.14 34.01 809.44 24.89 810.67 C22.78 810.99 22.78 810.99 20 812 C-12.39 816.14 -43.49 812.04 -74 801 C-74.97 800.67 -75.94 800.34 -76.94 800 C-87.13 796.34 -96.53 791.22 -106 786 C-106.94 785.48 -106.94 785.48 -107.89 784.96 C-113.5 781.84 -118.8 778.58 -123.84 774.61 C-127.64 771.78 -131.67 769.28 -135.66 766.73 C-136.43 766.16 -137.2 765.59 -138 765 C-138 764.34 -138 763.68 -138 763 C-138.56 762.76 -139.11 762.52 -139.69 762.28 C-142.52 760.71 -144.63 758.77 -147 756.56 C-150.53 753.3 -150.53 753.3 -154.31 750.34 C-155.15 749.68 -155.15 749.68 -156 749 C-156 748.34 -156 747.68 -156 747 C-156.54 746.79 -157.07 746.59 -157.62 746.38 C-160.92 744.47 -163.59 741.95 -166 739 C-166 738.34 -166 737.68 -166 737 C-166.57 736.77 -167.14 736.55 -167.73 736.32 C-170.64 734.63 -172.18 732.58 -174.25 729.94 C-177.02 726.41 -179.86 723.03 -182.88 719.71 C-186.84 715.28 -190.32 710.64 -193.69 705.75 C-194.28 704.89 -194.88 704.04 -195.49 703.16 C-205.42 688.7 -214.62 673.93 -222 658 C-222.36 657.23 -222.72 656.47 -223.09 655.68 C-232.16 636.34 -240.34 616.14 -244.57 595.12 C-245 593.02 -245.47 590.93 -245.95 588.84 C-247 584.12 -247.82 579.39 -248.56 574.62 C-248.75 573.46 -248.75 573.46 -248.94 572.28 C-250.46 562.63 -251.16 553.03 -251.2 543.27 C-251.21 542.28 -251.22 541.3 -251.22 540.28 C-251.24 537.13 -251.25 533.97 -251.25 530.81 C-251.25 529.2 -251.25 529.2 -251.26 527.55 C-251.26 512.89 -250.89 498.64 -248.36 484.17 C-247.84 481.06 -247.57 477.94 -247.25 474.81 C-241.18 430.29 -223.91 384.24 -204.68 343.71 C-202.82 339.77 -201.02 335.81 -199.27 331.82 C-194.3 320.47 -188.93 309.33 -183.53 298.18 C-181.56 294.08 -179.6 289.97 -177.65 285.87 C-171.08 272.08 -164.35 258.41 -157.12 244.96 C-154.77 240.57 -152.44 236.16 -150.12 231.75 C-149.5 230.56 -149.5 230.56 -148.86 229.35 C-146.69 225.22 -144.52 221.09 -142.35 216.95 C-138.45 209.52 -134.54 202.09 -130.49 194.74 C-129.34 192.62 -128.2 190.49 -127.07 188.36 C-123.24 181.1 -119.3 173.99 -115 167 C-113.43 164.44 -111.87 161.88 -110.31 159.31 C-109.93 158.69 -109.55 158.08 -109.16 157.44 C-107.33 154.42 -105.7 151.45 -104.34 148.18 C-103 145 -103 145 -101.19 142.75 C-98.54 139.42 -96.71 135.87 -94.71 132.11 C-92.26 127.65 -89.55 123.35 -86.83 119.04 C-84.98 116.05 -84.98 116.05 -83.52 113.01 C-81.86 109.72 -79.96 106.71 -77.94 103.62 C-77.14 102.4 -76.35 101.18 -75.56 99.95 C-75.14 99.31 -74.73 98.68 -74.3 98.02 C-72.02 94.48 -69.75 90.93 -67.5 87.38 C-67.07 86.7 -66.63 86.03 -66.19 85.33 C-63.92 81.81 -63.92 81.81 -62.48 77.92 C-61.76 75.04 -59.86 73.31 -58 71 C-56.51 68.64 -55.1 66.24 -53.68 63.83 C-50.53 58.51 -47.25 53.26 -44 48 C-43.25 46.78 -43.25 46.78 -42.48 45.54 C-39.14 40.13 -35.8 34.73 -32.44 29.32 C-31.58 27.94 -30.72 26.55 -29.86 25.16 C-12.59 -2.7 -12.59 -2.7 0 0 Z " fill="#17A15C" transform="translate(649,303)"/>
<path d="M0 0 C1.08 0.03 1.08 0.03 2.19 0.06 C27.57 0.83 53.13 4.34 77.84 10.19 C79.85 10.66 81.87 11.13 83.89 11.58 C98.72 14.94 113.15 19.13 127.56 23.94 C128.31 24.19 129.06 24.44 129.83 24.69 C139.96 28.08 149.88 31.81 159.75 35.88 C160.64 36.24 161.53 36.6 162.44 36.97 C173.48 41.46 184.18 46.38 194.75 51.88 C195.9 52.47 195.9 52.47 197.08 53.07 C207.24 58.29 217.13 63.71 226.75 69.88 C227.69 70.47 228.63 71.07 229.6 71.68 C231.44 72.84 233.27 74.01 235.1 75.19 C236.79 76.27 238.5 77.33 240.21 78.38 C262.8 92.27 286.2 109.87 304.75 128.88 C310.09 134.33 310.09 134.33 315.81 139.38 C318.87 141.98 321.31 144.78 323.9 147.84 C325.74 149.86 327.65 151.57 329.75 153.31 C333.32 156.35 336 159.63 338.79 163.38 C341.03 166.23 343.45 168.81 345.94 171.44 C352 177.9 357.23 184.92 362.44 192.07 C363.53 193.58 364.64 195.07 365.76 196.57 C367.79 199.31 369.78 202.09 371.75 204.88 C372.26 205.59 372.77 206.31 373.29 207.05 C386.63 225.98 398.39 245.79 409.56 266.06 C410.05 266.94 410.53 267.82 411.03 268.72 C413.4 273.08 415.41 277.36 417.06 282.03 C418.16 284.96 419.62 287.67 421.06 290.44 C424.42 297.01 427.26 303.72 429.88 310.61 C430.86 313.15 431.85 315.68 432.84 318.21 C445.71 351.35 455.08 386.6 459.75 421.88 C459.9 422.95 460.05 424.02 460.2 425.13 C464.45 457.21 463.92 490.04 461.44 522.25 C461.38 523.02 461.32 523.8 461.26 524.59 C460.06 539.9 457.37 554.91 454.49 569.97 C454.01 572.52 453.54 575.06 453.07 577.61 C451.4 586.84 449.41 595.96 447.12 605.06 C446.87 606.07 446.87 606.07 446.61 607.1 C442.23 624.57 437.33 642.1 430.75 658.88 C430.43 659.7 430.12 660.52 429.79 661.36 C421.14 683.68 412.23 706.38 399.75 726.88 C398.7 728.79 397.66 730.7 396.62 732.62 C386.36 751.53 373.82 768.65 359.75 784.88 C359.21 785.5 358.67 786.13 358.12 786.77 C343.87 803.22 328.4 817.2 308.75 826.88 C307.64 823.55 307.87 822.47 308.64 819.15 C308.85 818.21 309.07 817.27 309.29 816.3 C309.52 815.29 309.76 814.29 310 813.25 C310.47 811.15 310.94 809.04 311.41 806.94 C311.76 805.39 311.76 805.39 312.11 803.8 C315 790.59 316.65 777.35 317.75 763.88 C317.81 763.16 317.87 762.44 317.93 761.7 C318.32 756.76 318.58 751.83 318.75 746.88 C318.78 746.11 318.81 745.34 318.84 744.54 C319.94 709.82 315.82 674.61 307.75 640.88 C307.53 639.94 307.31 639 307.08 638.04 C299.78 607.45 290.13 577.79 278.76 548.48 C278.05 546.64 277.34 544.8 276.64 542.96 C273.21 533.95 269.56 525.03 265.88 516.12 C265.28 514.69 264.69 513.26 264.1 511.82 C263.21 509.67 262.32 507.52 261.44 505.38 C259.9 501.67 258.37 497.95 256.85 494.24 C256.54 493.48 256.23 492.72 255.9 491.93 C255.31 490.49 254.72 489.05 254.13 487.61 C252.02 482.45 249.73 477.38 247.36 472.34 C245.05 467.36 242.84 462.34 240.64 457.32 C238.75 453.04 236.76 448.83 234.65 444.66 C233.52 442.42 232.47 440.16 231.44 437.88 C231.01 436.94 230.59 436.01 230.16 435.05 C229.14 432.75 228.14 430.45 227.16 428.14 C223.71 420.06 219.94 412.27 215.74 404.55 C213.73 400.86 211.82 397.13 209.94 393.38 C209.39 392.29 208.85 391.21 208.29 390.09 C207.26 387.93 206.27 385.74 205.34 383.52 C203.46 379.22 201.29 375.13 199.06 371 C195.79 364.86 192.66 358.69 189.75 352.38 C180.74 332.88 170.21 313.95 159.44 295.38 C156.94 291.05 154.63 286.68 152.44 282.19 C148.75 274.69 144.55 267.52 140.33 260.31 C137.36 255.22 134.54 250.06 131.75 244.88 C130.51 242.63 129.26 240.4 128.02 238.16 C127.14 236.58 126.28 234.99 125.42 233.4 C122.29 227.57 118.99 221.87 115.57 216.21 C111.48 209.44 107.46 202.63 103.44 195.82 C100.9 191.5 98.34 187.19 95.76 182.89 C93.13 178.52 90.54 174.13 87.96 169.73 C83.48 162.11 78.98 154.53 74.16 147.12 C72.72 144.83 71.41 142.5 70.12 140.12 C68.65 137.4 67.09 134.87 65.25 132.38 C63.41 129.88 61.85 127.35 60.38 124.62 C58.08 120.39 55.55 116.36 52.94 112.32 C50.13 107.93 47.42 103.49 44.69 99.06 C39.4 90.49 34.03 81.98 28.6 73.51 C25.31 68.37 22.12 63.19 19.03 57.94 C17.73 55.74 17.73 55.74 15.75 53.44 C13.2 50.17 11.41 46.65 9.51 42.98 C7.14 38.8 4.45 34.86 1.75 30.88 C-0.63 27.34 -3 23.79 -5.38 20.25 C-6.29 18.9 -6.29 18.9 -7.21 17.52 C-16.25 4.01 -16.25 4.01 -16.25 0.88 C-11.59 -1.46 -5.15 -0.14 0 0 Z " fill="#121412" transform="translate(670.25,164.125)"/>
<path d="M0 0 C3.32 -0.13 5.34 -0.11 8.23 1.62 C8.72 2.11 9.22 2.61 9.73 3.12 C9.23 3.89 8.73 4.65 8.22 5.44 C2.83 13.76 -2.41 22.16 -7.61 30.59 C-10.81 35.77 -14.04 40.93 -17.33 46.05 C-19.02 48.72 -20.68 51.4 -22.33 54.09 C-22.9 55.01 -23.46 55.92 -24.04 56.87 C-25.16 58.69 -26.28 60.51 -27.39 62.33 C-30.66 67.65 -34.09 72.81 -37.73 77.88 C-39.67 80.7 -41.28 83.64 -42.9 86.65 C-46.46 93.07 -50.47 99.23 -54.35 105.46 C-57.48 110.48 -60.52 115.5 -63.27 120.74 C-65.3 124.55 -67.54 127.94 -70.15 131.37 C-73.75 136.18 -76.53 141.14 -79.28 146.45 C-81.35 150.42 -83.52 154.26 -85.9 158.06 C-94.65 172.05 -102.84 186.41 -110.79 200.88 C-113.72 206.19 -116.8 211.4 -119.95 216.58 C-123.03 221.66 -125.95 226.83 -128.84 232.02 C-131.49 236.76 -134.24 241.45 -137.02 246.12 C-141.8 254.14 -146.24 262.34 -150.63 270.57 C-153.54 276.01 -156.58 281.34 -159.78 286.62 C-162.41 291.02 -164.83 295.54 -167.27 300.06 C-168.27 301.9 -169.27 303.74 -170.27 305.58 C-170.76 306.49 -171.26 307.4 -171.76 308.34 C-172.79 310.22 -173.81 312.1 -174.84 313.98 C-177.77 319.31 -180.61 324.66 -183.27 330.12 C-187.26 338.26 -191.32 346.32 -195.83 354.18 C-199.14 359.94 -202.07 365.77 -204.81 371.82 C-206.96 376.52 -209.34 381.04 -211.86 385.56 C-214.72 390.75 -217.38 396.02 -219.69 401.47 C-221.28 405.14 -223.06 408.69 -224.9 412.24 C-228.62 419.56 -231.86 427.03 -235.04 434.59 C-237.52 440.44 -240.17 446.12 -243.07 451.77 C-245.67 456.86 -247.67 462.16 -249.71 467.49 C-251.97 473.39 -254.27 479.26 -257.18 484.87 C-259.63 489.62 -261.52 494.37 -263.21 499.43 C-265.21 505.29 -267.39 510.95 -270.1 516.53 C-273.05 523.04 -275.25 529.87 -277.58 536.62 C-279.74 542.82 -281.95 548.98 -284.27 555.12 C-290.26 570.96 -295.6 586.97 -300.51 603.18 C-301.4 606.12 -302.3 609.05 -303.2 611.99 C-322.11 673.98 -328.03 739.63 -318.24 803.93 C-317.41 809.4 -317.15 814.59 -317.27 820.12 C-326.08 815.78 -333.7 810.31 -341.27 804.12 C-341.85 803.65 -342.43 803.18 -343.02 802.7 C-355.62 792.44 -366.18 780.84 -376.27 768.12 C-376.83 767.44 -377.39 766.77 -377.96 766.07 C-382.08 760.96 -385.74 755.56 -389.4 750.12 C-389.9 749.37 -390.4 748.62 -390.92 747.85 C-393.87 743.41 -396.58 738.9 -399.13 734.22 C-400.73 731.28 -402.41 728.39 -404.08 725.49 C-405.49 723.04 -406.88 720.58 -408.27 718.12 C-408.6 717.54 -408.93 716.96 -409.27 716.36 C-415.01 706.16 -419.68 695.59 -424.17 684.78 C-424.93 682.95 -425.69 681.13 -426.47 679.31 C-459.13 602.15 -472.77 514.33 -451.13 361.95 C-450.17 358.78 -449.24 355.6 -448.32 352.42 C-443.45 335.64 -438.3 319.14 -431.27 303.12 C-430.96 302.41 -430.66 301.7 -430.34 300.97 C-425.23 289.21 -419.64 277.81 -413.56 266.52 C-410.92 261.6 -408.35 256.65 -405.76 251.7 C-397.78 236.51 -397.78 236.51 -393.27 230.49 C-392.24 229.1 -392.24 229.1 -391.19 227.68 C-390.56 226.84 -389.92 225.99 -389.27 225.12 C-386.55 221.48 -384.13 217.91 -382.02 213.87 C-379.44 209.1 -376.14 205.13 -372.65 200.99 C-370.31 198.17 -368.13 195.27 -365.96 192.31 C-361.29 186.03 -356.25 180.14 -351.1 174.25 C-349.7 172.62 -348.32 170.97 -346.96 169.31 C-340.22 161.14 -333.01 153.58 -325.49 146.13 C-323.57 144.23 -321.66 142.32 -319.75 140.41 C-313.76 134.44 -307.75 128.57 -301.27 123.12 C-300.14 122.14 -299.01 121.15 -297.89 120.16 C-287.47 111.13 -276.69 102.76 -265.44 94.8 C-261.62 92.1 -257.87 89.32 -254.15 86.49 C-246.1 80.44 -238.05 74.84 -228.94 70.52 C-225.7 68.82 -222.69 66.83 -219.65 64.81 C-212.8 60.29 -205.67 56.65 -198.29 53.1 C-195.65 51.82 -193.04 50.5 -190.42 49.17 C-187.74 47.82 -185.06 46.49 -182.37 45.16 C-180.96 44.46 -179.55 43.76 -178.14 43.05 C-150.65 29.38 -121.29 19.16 -91.52 11.74 C-90.54 11.5 -90.54 11.5 -89.53 11.25 C-74.56 7.54 -59.66 4.69 -44.33 2.99 C-43.58 2.91 -42.82 2.82 -42.05 2.73 C-29.59 1.33 -17.15 0.35 -4.6 0.16 C-3.07 0.13 -1.53 0.08 0 0 Z " fill="#17A15C" transform="translate(622.27197265625,164.880859375)"/>
<path d="M0 0 C-3.27 2.97 -5.38 3.34 -9.75 3.19 C-11.23 3.15 -11.23 3.15 -12.73 3.11 C-13.86 3.05 -13.86 3.05 -15 3 C-15 2.34 -15 1.68 -15 1 C-13.44 0.63 -11.88 0.28 -10.31 -0.06 C-9.44 -0.26 -8.57 -0.46 -7.68 -0.66 C-4.84 -1.02 -2.75 -0.71 0 0 Z " fill="#C1EED8" transform="translate(684,1113)"/>
<path d="M0 0 C4.27 3.79 6.89 7.67 9 13 C9 13.66 9 14.32 9 15 C6 14 6 14 4.39 11.35 C3.87 10.26 3.35 9.18 2.81 8.06 C2.28 6.98 1.75 5.9 1.21 4.79 C0 2 0 2 0 0 Z " fill="#BDEAD3" transform="translate(795,544)"/>
</svg>
